<svg width="180" height="32" viewBox="0 0 180 32" fill="none" xmlns="http://www.w3.org/2000/svg">
<path fill-rule="evenodd" clip-rule="evenodd" d="M7.82763 10.6181C8.27858 9.48331 9.37469 8.73719 10.5958 8.7338C11.8143 8.73929 12.9071 9.48523 13.3561 10.6181L19.1973 25.1871H14.8558L13.7097 22.2092H7.38279L6.25223 25.1871H2L7.82763 10.6181ZM10.5622 13.5728L8.53617 18.9537H12.5631L10.5622 13.5728Z" fill="#333333"/>
<path d="M22.6955 15.6045H19.1193C18.3168 15.6045 17.6663 14.9539 17.6663 14.1514C17.6663 13.349 18.3168 12.6984 19.1193 12.6984H26.4038V25.187H22.6955V15.6045Z" fill="#333333"/>
<path d="M49.229 15.6045H45.6508C44.8491 15.6034 44.1998 14.9532 44.1998 14.1514C44.1998 13.3497 44.8491 12.6995 45.6508 12.6984H52.9373V25.187H49.229V15.6045Z" fill="#333333"/>
<path d="M56.5198 23.2115L62.9108 15.6045H58.2351C57.8499 15.6045 57.4805 15.4513 57.2083 15.1788C56.9362 14.9062 56.7835 14.5366 56.784 14.1514C56.7835 13.7663 56.9362 13.3967 57.2083 13.1241C57.4805 12.8516 57.8499 12.6984 58.2351 12.6984H68.0702V14.6798L61.6365 22.2732H66.7804C67.1662 22.2732 67.5363 22.4265 67.8092 22.6994C68.082 22.9722 68.2353 23.3423 68.2353 23.7282C68.2358 24.1144 68.0828 24.485 67.8099 24.7583C67.5369 25.0315 67.1666 25.1851 66.7804 25.1851H56.5198V23.2115Z" fill="#333333"/>
<path d="M69.6176 18.9398C69.6176 14.8605 72.7704 12.3973 76.1174 12.3973C79.9694 12.3973 81.9994 15.2024 81.9975 18.394C82.0072 18.9479 81.9839 19.5018 81.9275 20.0529H72.3644V17.5684H79.3362L78.7534 18.2755C78.7534 16.2688 77.8812 15.214 76.2397 15.214C74.4099 15.214 73.2074 16.4553 73.2074 18.9398C73.2074 21.5312 74.6197 22.6695 77.0478 22.6695C77.8185 22.6682 78.5828 22.5301 79.3051 22.2616C79.9198 22.0325 80.6096 22.2877 80.9271 22.8618C81.1062 23.1861 81.1404 23.5709 81.0214 23.9217C80.9023 24.2725 80.6411 24.5569 80.3016 24.7053C79.1117 25.2117 77.834 25.4796 76.5408 25.494C72.646 25.494 69.6176 23.091 69.6176 18.9398Z" fill="#333333"/>
<rect x="30.1101" y="6.45721" width="15.0741" height="3.00706" rx="1.50353" fill="#333333"/>
<path d="M24.3822 10.4219C25.7415 10.4219 26.8434 9.32 26.8434 7.96072C26.8434 6.60143 25.7415 5.49951 24.3822 5.49951C23.0229 5.49951 21.921 6.60143 21.921 7.96072C21.921 9.32 23.0229 10.4219 24.3822 10.4219Z" fill="#333333"/>
<path d="M50.9157 10.4219C52.275 10.4219 53.3769 9.32 53.3769 7.96072C53.3769 6.60143 52.275 5.49951 50.9157 5.49951C49.5564 5.49951 48.4545 6.60143 48.4545 7.96072C48.4545 9.32 49.5564 10.4219 50.9157 10.4219Z" fill="#333333"/>
<path d="M38.0479 12.3978C36.3656 12.3978 35.0797 13.1399 34.0462 14.0684C33.9906 13.0868 33.1781 12.3196 32.195 12.3201C31.7035 12.3201 31.2321 12.5153 30.8846 12.8629C30.537 13.2104 30.3418 13.6818 30.3418 14.1733V25.1875H34.0521V16.9997C34.8874 16.0789 35.5906 15.5544 36.5774 15.5544C37.9371 15.5544 38.4092 16.2926 38.4092 17.9554V25.1875H42.1175V17.4795C42.1156 14.3287 40.8723 12.3978 38.0479 12.3978Z" fill="#333333"/>
</svg>
